<mxfile host="app.diagrams.net" modified="2022-06-28T06:22:30.689Z" agent="5.0 (Windows NT 10.0; Win64; x64) AppleWebKit/537.36 (KHTML, like Gecko) Chrome/103.0.5060.53 Safari/537.36 Edg/103.0.1264.37" etag="pfNRbUX9qkSmFAuvAK1J" version="20.0.3" type="github">
  <diagram id="RZZLhatJuahhunrmR59R" name="Page-1">
    <mxGraphModel dx="1273" dy="814" grid="1" gridSize="10" guides="1" tooltips="1" connect="1" arrows="1" fold="1" page="1" pageScale="1" pageWidth="1169" pageHeight="827" math="0" shadow="0">
      <root>
        <mxCell id="0" />
        <mxCell id="1" parent="0" />
        <mxCell id="EVkCRe0jTfTS45KgXcL8-3" value="" style="rounded=0;whiteSpace=wrap;html=1;" vertex="1" parent="1">
          <mxGeometry x="190" y="80" width="680" height="550" as="geometry" />
        </mxCell>
        <mxCell id="EVkCRe0jTfTS45KgXcL8-4" value="" style="rounded=0;whiteSpace=wrap;html=1;" vertex="1" parent="1">
          <mxGeometry x="190" y="80" width="210" height="550" as="geometry" />
        </mxCell>
        <mxCell id="EVkCRe0jTfTS45KgXcL8-5" value="" style="rounded=0;whiteSpace=wrap;html=1;" vertex="1" parent="1">
          <mxGeometry x="190" y="80" width="210" height="50" as="geometry" />
        </mxCell>
        <mxCell id="EVkCRe0jTfTS45KgXcL8-6" value="" style="rounded=0;whiteSpace=wrap;html=1;" vertex="1" parent="1">
          <mxGeometry x="190" y="130" width="210" height="50" as="geometry" />
        </mxCell>
        <mxCell id="EVkCRe0jTfTS45KgXcL8-7" value="" style="rounded=0;whiteSpace=wrap;html=1;" vertex="1" parent="1">
          <mxGeometry x="190" y="180" width="210" height="50" as="geometry" />
        </mxCell>
        <mxCell id="EVkCRe0jTfTS45KgXcL8-8" value="" style="rounded=0;whiteSpace=wrap;html=1;" vertex="1" parent="1">
          <mxGeometry x="190" y="230" width="210" height="50" as="geometry" />
        </mxCell>
        <mxCell id="EVkCRe0jTfTS45KgXcL8-9" value="" style="rounded=0;whiteSpace=wrap;html=1;" vertex="1" parent="1">
          <mxGeometry x="190" y="280" width="210" height="50" as="geometry" />
        </mxCell>
        <mxCell id="EVkCRe0jTfTS45KgXcL8-10" value="" style="rounded=0;whiteSpace=wrap;html=1;" vertex="1" parent="1">
          <mxGeometry x="190" y="330" width="210" height="50" as="geometry" />
        </mxCell>
        <mxCell id="EVkCRe0jTfTS45KgXcL8-11" value="" style="rounded=0;whiteSpace=wrap;html=1;" vertex="1" parent="1">
          <mxGeometry x="190" y="380" width="210" height="50" as="geometry" />
        </mxCell>
        <mxCell id="EVkCRe0jTfTS45KgXcL8-12" value="" style="rounded=0;whiteSpace=wrap;html=1;" vertex="1" parent="1">
          <mxGeometry x="190" y="430" width="210" height="50" as="geometry" />
        </mxCell>
        <mxCell id="EVkCRe0jTfTS45KgXcL8-13" value="" style="rounded=0;whiteSpace=wrap;html=1;" vertex="1" parent="1">
          <mxGeometry x="190" y="480" width="210" height="50" as="geometry" />
        </mxCell>
        <mxCell id="EVkCRe0jTfTS45KgXcL8-14" value="" style="rounded=0;whiteSpace=wrap;html=1;" vertex="1" parent="1">
          <mxGeometry x="190" y="530" width="210" height="50" as="geometry" />
        </mxCell>
        <mxCell id="EVkCRe0jTfTS45KgXcL8-15" value="" style="rounded=0;whiteSpace=wrap;html=1;" vertex="1" parent="1">
          <mxGeometry x="190" y="580" width="210" height="50" as="geometry" />
        </mxCell>
        <mxCell id="EVkCRe0jTfTS45KgXcL8-16" value="" style="rounded=0;whiteSpace=wrap;html=1;" vertex="1" parent="1">
          <mxGeometry x="400" y="80" width="470" height="250" as="geometry" />
        </mxCell>
        <mxCell id="EVkCRe0jTfTS45KgXcL8-17" value="" style="rounded=0;whiteSpace=wrap;html=1;" vertex="1" parent="1">
          <mxGeometry x="400" y="380" width="470" height="250" as="geometry" />
        </mxCell>
        <mxCell id="EVkCRe0jTfTS45KgXcL8-18" value="加密" style="rounded=0;whiteSpace=wrap;html=1;" vertex="1" parent="1">
          <mxGeometry x="400" y="330" width="120" height="50" as="geometry" />
        </mxCell>
        <mxCell id="EVkCRe0jTfTS45KgXcL8-19" value="解密" style="rounded=0;whiteSpace=wrap;html=1;" vertex="1" parent="1">
          <mxGeometry x="520" y="330" width="120" height="50" as="geometry" />
        </mxCell>
        <mxCell id="EVkCRe0jTfTS45KgXcL8-20" value="" style="rounded=0;whiteSpace=wrap;html=1;" vertex="1" parent="1">
          <mxGeometry x="640" y="330" width="100" height="50" as="geometry" />
        </mxCell>
      </root>
    </mxGraphModel>
  </diagram>
</mxfile>
